<svg xmlns="http://www.w3.org/2000/svg" viewBox="0 0 1024 1024" width="100%" height="100%">
  <defs>
    <linearGradient id="bgGrad" x1="0%" y1="0%" x2="0%" y2="100%">
      <stop offset="0%" stop-color="#46bf77" />
      <stop offset="100%" stop-color="#177b5a" />
    </linearGradient>
  </defs>
  <!-- Squircle Background -->
  <rect x="8" y="8" width="1008" height="1008" rx="250" fill="url(#bgGrad)" />
  
  <!-- Traced White Play Icon with Fork Cutout -->
  <path d="M 311 185 L 295 188 L 279 197 L 270 205 L 259 218 L 254 229 L 250 244 L 249 257 L 250 785 L 253 793 L 254 800 L 259 811 L 262 814 L 263 817 L 278 832 L 293 841 L 300 842 L 307 845 L 330 845 L 339 841 L 347 840 L 376 824 L 451 779 L 453 775 L 453 721 L 448 692 L 439 674 L 430 663 L 413 647 L 407 643 L 399 635 L 390 623 L 380 603 L 379 594 L 375 582 L 375 552 L 379 535 L 379 520 L 383 500 L 384 480 L 387 465 L 391 412 L 395 396 L 403 387 L 408 384 L 420 384 L 432 393 L 436 403 L 436 539 L 438 544 L 444 548 L 450 548 L 455 546 L 459 540 L 460 480 L 462 450 L 462 413 L 463 402 L 467 392 L 477 384 L 490 383 L 494 384 L 502 389 L 508 397 L 511 411 L 511 454 L 513 482 L 514 531 L 516 541 L 518 545 L 523 548 L 527 548 L 533 545 L 536 539 L 537 526 L 537 408 L 539 397 L 541 393 L 547 387 L 553 384 L 563 384 L 569 387 L 578 397 L 583 423 L 584 446 L 587 460 L 588 478 L 593 505 L 598 554 L 598 585 L 595 600 L 593 603 L 593 606 L 584 622 L 539 667 L 530 679 L 525 690 L 521 708 L 520 732 L 522 736 L 530 735 L 541 729 L 544 726 L 549 724 L 552 721 L 567 712 L 610 689 L 613 686 L 618 684 L 637 671 L 685 645 L 689 641 L 696 638 L 719 623 L 741 612 L 751 605 L 761 600 L 764 597 L 779 589 L 782 586 L 806 573 L 820 559 L 831 541 L 832 534 L 835 527 L 835 505 L 830 487 L 826 480 L 817 468 L 801 454 L 780 443 L 734 414 L 701 397 L 698 394 L 685 387 L 672 378 L 639 361 L 615 347 L 612 344 L 607 342 L 604 339 L 554 312 L 535 299 L 501 281 L 496 277 L 477 267 L 448 249 L 442 247 L 429 238 L 424 236 L 421 233 L 407 226 L 404 223 L 383 212 L 354 194 L 339 187 L 325 185 Z" fill="white" fill-rule="evenodd" />
</svg>
