<svg xmlns="http://www.w3.org/2000/svg" viewBox="0 0 1024 1024" width="100%" height="100%">
  <defs>
    <linearGradient id="bgGrad" x1="0%" y1="0%" x2="0%" y2="100%">
      <stop offset="0%" stop-color="#46bf77" />
      <stop offset="100%" stop-color="#177b5a" />
    </linearGradient>
  </defs>
  <!-- Squircle Background -->
  <rect x="8" y="8" width="1008" height="1008" rx="250" fill="url(#bgGrad)" />
  
  <!-- Traced & Smoothed White Play Icon with Fork Cutout -->
  <path d="M 311 185 L 295 188 L 289 192 L 287 192 L 279 197 L 270 205 L 262 214 L 258 220 L 254 229 L 250 244 L 249 257 L 250 785 L 251 789 L 253 793 L 253 797 L 259 811 L 264 818 L 278 832 L 282 835 L 291 840 L 308 845 L 329 845 L 333 844 L 336 842 L 339 841 L 344 841 L 347 840 L 376 824 L 388 816 L 409 805 L 412 802 L 419 799 L 422 796 L 439 787 L 447 782 L 452 777 L 453 774 L 453 721 L 449 695 L 448 692 L 442 679 L 430 663 L 421 654 L 413 647 L 406 642 L 399 635 L 390 623 L 385 614 L 380 603 L 379 599 L 379 594 L 376 587 L 375 582 L 375 552 L 378 541 L 379 535 L 379 520 L 380 512 L 382 506 L 384 490 L 384 480 L 387 465 L 388 454 L 388 442 L 391 412 L 392 406 L 395 396 L 397 393 L 403 387 L 409 384 L 419 384 L 422 385 L 428 389 L 431 392 L 433 395 L 435 400 L 436 404 L 436 538 L 438 543 L 442 547 L 445 548 L 449 548 L 454 546 L 458 542 L 459 539 L 460 514 L 460 480 L 462 450 L 462 413 L 463 402 L 465 396 L 468 391 L 472 387 L 475 385 L 481 383 L 490 383 L 496 385 L 503 390 L 508 397 L 510 404 L 511 411 L 511 454 L 513 482 L 513 512 L 514 531 L 515 537 L 517 543 L 521 547 L 524 548 L 526 548 L 531 546 L 534 543 L 536 538 L 537 526 L 537 408 L 538 401 L 540 395 L 542 392 L 546 388 L 549 386 L 554 384 L 562 384 L 565 385 L 570 388 L 576 394 L 579 400 L 583 423 L 583 436 L 584 446 L 587 460 L 588 468 L 588 478 L 590 492 L 592 498 L 597 542 L 598 554 L 598 585 L 597 592 L 595 600 L 592 608 L 587 617 L 580 627 L 539 667 L 529 681 L 524 694 L 521 708 L 520 718 L 520 731 L 522 735 L 524 736 L 526 736 L 527 735 L 530 735 L 541 729 L 544 726 L 549 724 L 552 721 L 567 712 L 581 705 L 584 702 L 601 694 L 610 689 L 613 686 L 618 684 L 621 681 L 626 679 L 629 676 L 658 659 L 671 653 L 678 649 L 691 640 L 696 638 L 704 632 L 719 623 L 732 617 L 746 609 L 751 605 L 761 600 L 764 597 L 771 594 L 774 591 L 779 589 L 782 586 L 806 573 L 820 559 L 823 555 L 830 543 L 832 534 L 834 531 L 835 527 L 835 505 L 834 501 L 832 497 L 832 493 L 831 490 L 826 480 L 822 474 L 817 468 L 809 460 L 799 453 L 780 443 L 775 439 L 770 437 L 765 433 L 760 431 L 757 428 L 747 423 L 734 414 L 717 406 L 701 397 L 698 394 L 690 389 L 685 387 L 682 384 L 677 382 L 672 378 L 652 367 L 639 361 L 623 352 L 620 349 L 615 347 L 612 344 L 607 342 L 604 339 L 595 334 L 582 328 L 575 323 L 554 312 L 546 307 L 543 304 L 538 302 L 535 299 L 501 281 L 496 277 L 477 267 L 472 263 L 453 253 L 448 249 L 442 247 L 429 238 L 424 236 L 421 233 L 414 229 L 407 226 L 404 223 L 383 212 L 366 202 L 361 198 L 354 194 L 338 187 L 325 185 Z" fill="white" fill-rule="evenodd" />
</svg>
